<?xml version="1.0" encoding="utf-8"?>
<!-- Generator: Adobe Illustrator 23.0.0, SVG Export Plug-In . SVG Version: 6.00 Build 0)  -->
<svg version="1.1" id="Layer_1" xmlns="http://www.w3.org/2000/svg" xmlns:xlink="http://www.w3.org/1999/xlink" x="0px" y="0px"
	 viewBox="0 0 216 216" style="enable-background:new 0 0 216 216;" xml:space="preserve">
<style type="text/css">
	.st0{fill:#E7F0ED;}
	.st1{fill:#F87F01;}
</style>
<g>
	<path class="st0" d="M199.83,94.45c0.14-3.15-0.3-6.17-1.31-9.05c-0.92-3.27-5.2-13.4-6.92-16.33c-1.89-3.23-8.09-11.17-10.67-13.9
		c-0.29-0.4-0.62-0.74-1.02-1.04c-4.37-3.38-8.74-6.76-13.11-10.13c-0.56-0.35-1.1-0.66-1.68-0.97c-5.16-2.18-10.32-4.36-15.48-6.54
		c-0.35-0.11-0.7-0.22-1.05-0.33l-1.07-0.21c-5.73-0.76-11.48-1.54-17.21-2.31c-0.69-0.06-1.35-0.07-2.02-0.07
		c-7.97-0.84-15.94-0.18-23.91,1.96c-11.35,4.18-21.7,8.42-30.19,17.59c-2.3,2.48-8.87,10.79-10.61,13.69
		c-1.59,2.65-2.82,6.43-3.81,8.75c-2.4,5.69-2.81,5.6-3.59,9.27c-0.96,4.48-2.37,13.46-2.31,18.01c0.77,5.74,1.55,11.48,2.31,17.22
		c0.05,0.26,0.09,0.52,0.12,0.78c0.09,0.25,0.17,0.5,0.25,0.74c1.07,2.53,2.14,5.06,3.21,7.59c-0.51,0.06-1.01,0.17-1.51,0.36
		c-3.96,1.54-7.61,3.55-11.04,6.05c-1.55,1.13-3.04,2.32-4.53,3.52c-1.03,0.83-2.06,1.66-3.09,2.5c-0.02,0.01-0.03,0.02-0.05,0.04
		c-0.46,0.36-0.91,0.72-1.35,1.08c-6.16,4.82-13.81,8.4-18.61,14.75c-2.88,3.8-5.08,8.25-4.65,13.16
		c0.52,5.99,4.89,10.14,10.57,11.54c8.87,2.19,17.71-1.71,25.01-6.48c8.67-5.67,16.88-12.11,24.85-18.71
		c0.79-0.65,1.33-1.58,1.64-2.61c3.52,3.01,9.23,7.34,12.16,9.17c0.56,0.35,1.13,0.67,1.72,0.98c17.9,9.39,36.48,12.5,56.55,7.86
		c3.43-0.78,4.79-1.76,9.21-3.62c3.03-1.29,6.1-2.35,8.97-3.89c3.22-1.75,11.12-8.25,13.86-10.66c0.62-0.53,1.14-1.1,1.68-1.7
		c3.38-4.37,6.75-8.74,10.13-13.11c0.17-0.29,0.34-0.57,0.52-0.86c2.18-5.15,4.35-10.31,6.53-15.48c0.11-0.31,0.23-0.62,0.33-0.94
		c0.77-5.74,1.55-11.48,2.32-17.22l0.1-0.94C200.72,100.79,200.3,97.62,199.83,94.45z M189.83,104.75
		c-0.66,4.88-1.31,9.74-1.97,14.61c-0.1,0.27-0.19,0.53-0.29,0.79c-1.85,4.38-3.69,8.75-5.54,13.13c-0.14,0.24-0.29,0.49-0.44,0.72
		c-2.86,3.7-5.72,7.41-8.59,11.12c-0.47,0.52-0.91,0.98-1.42,1.44c-2.34,2.04-9.04,7.57-11.76,9.04c-2.43,1.32-5.04,2.21-7.6,3.3
		c-3.74,1.58-4.9,2.4-7.81,3.07c-17.02,3.93-32.77,1.3-47.95-6.67c-0.51-0.26-0.98-0.53-1.46-0.83c-2.95-1.85-9.25-6.7-11.78-9.09
		c-2.07-1.96-3.05-3.68-5.17-6.42c-2.01-2.6-3.64-4.4-5.15-6.95c-1.85-4.37-3.69-8.75-5.54-13.12c-0.07-0.21-0.13-0.42-0.21-0.64
		c-0.03-0.22-0.07-0.44-0.11-0.66c-0.65-4.87-1.31-9.73-1.96-14.61c-0.05-3.86,1.14-11.47,1.96-15.28c0.67-3.11,1.01-3.04,3.04-7.87
		c0.83-1.97,1.88-5.16,3.23-7.41c1.47-2.46,7.05-9.51,9-11.61c7.21-7.79,15.98-11.37,25.61-14.92c6.75-1.81,13.52-2.37,20.27-1.66
		c0.56,0,1.14,0.01,1.72,0.06c4.87,0.66,9.73,1.31,14.6,1.97l0.91,0.17c0.3,0.1,0.59,0.19,0.89,0.29c4.37,1.84,8.75,3.69,13.12,5.53
		c0.5,0.27,0.95,0.53,1.43,0.83c3.71,2.86,7.41,5.73,11.12,8.6c0.34,0.25,0.63,0.54,0.87,0.88c2.18,2.32,7.45,9.05,9.05,11.79
		c1.45,2.49,5.09,11.08,5.86,13.85c0.86,2.44,1.23,5,1.11,7.68c0.4,2.69,0.75,5.38,1.08,8.08L189.83,104.75z"/>
	<g>
		<path class="st1" d="M105.3,133.14l12.72-1.55V80.6h-12.88v-8.64l27.92-5.07v64.69l12.72,1.55v9.05H105.3V133.14z"/>
	</g>
</g>
</svg>
