<svg id="Layer_1" data-name="Layer 1" xmlns="http://www.w3.org/2000/svg" viewBox="0 0 216 216"><defs><style>.cls-1{fill:#212931;}.cls-2{fill:#fff;}.cls-3{fill:#feca01;}</style></defs><title>pana</title><path class="cls-1" d="M199.73,94a23.63,23.63,0,0,0-1.3-9,120.72,120.72,0,0,0-6.9-16.29,118.9,118.9,0,0,0-10.64-13.87,4.79,4.79,0,0,0-1-1L166.79,43.68c-.56-.35-1.09-.65-1.67-1l-15.44-6.52c-.35-.1-.7-.22-1.05-.33l-1.06-.21-17.17-2.3c-.69-.06-1.36-.07-2-.07a65,65,0,0,0-23.85,1.95C93.2,39.4,82.88,43.63,74.41,52.78A143.56,143.56,0,0,0,63.83,66.44C62.24,69.09,61,72.86,60,75.17c-2.39,5.67-2.8,5.59-3.58,9.25-1,4.47-2.36,13.43-2.3,18q1.16,8.6,2.3,17.18.07.39.12.78c.09.25.18.5.25.74,1.07,2.53,2.13,5,3.2,7.57a6.18,6.18,0,0,0-1.5.36,47.83,47.83,0,0,0-11,6c-1.54,1.12-3,2.31-4.52,3.51l-3.08,2.49,0,0-1.35,1.08c-6.15,4.8-13.77,8.37-18.56,14.71-2.87,3.79-5.06,8.23-4.64,13.13.53,6,4.88,10.11,10.55,11.51,8.85,2.19,17.67-1.7,24.95-6.46a275.77,275.77,0,0,0,24.78-18.66,5.44,5.44,0,0,0,1.64-2.61,130.54,130.54,0,0,0,12.12,9.14c.57.36,1.13.67,1.72,1,17.85,9.37,36.39,12.47,56.41,7.85,3.42-.78,4.78-1.75,9.19-3.61,3-1.29,6.08-2.34,8.94-3.88,3.21-1.75,11.09-8.24,13.83-10.64a19.14,19.14,0,0,0,1.68-1.69l10.11-13.08c.17-.28.34-.57.52-.85l6.51-15.44c.11-.31.23-.62.33-.93q1.15-8.59,2.32-17.18l.1-.94Q200.43,98.76,199.73,94Zm-10,10.28c-.66,4.87-1.3,9.72-2,14.58-.1.26-.19.53-.29.79L182,132.76c-.14.24-.28.49-.43.73L173,144.57a19.32,19.32,0,0,1-1.42,1.44c-2.33,2-9,7.55-11.73,9-2.43,1.31-5,2.2-7.59,3.29-3.73,1.58-4.89,2.4-7.8,3.06-17,3.92-32.69,1.3-47.83-6.65-.51-.26-1-.53-1.46-.83a106.26,106.26,0,0,1-11.75-9.07c-2.07-2-3.05-3.67-5.16-6.4a66.38,66.38,0,0,1-5.14-6.93q-2.77-6.54-5.53-13.09l-.21-.64c0-.22-.07-.44-.11-.65-.64-4.86-1.3-9.71-2-14.58,0-3.85,1.14-11.44,2-15.24.67-3.1,1-3,3-7.85a59.32,59.32,0,0,1,3.22-7.39,119.45,119.45,0,0,1,9-11.59c7.2-7.76,15.94-11.34,25.55-14.88a55.33,55.33,0,0,1,20.22-1.66c.57,0,1.14,0,1.72.06l14.56,2,.9.17.89.29,13.09,5.52c.49.26,1,.53,1.42.82q5.56,4.29,11.09,8.58a3.63,3.63,0,0,1,.87.88,102.51,102.51,0,0,1,9,11.76,103,103,0,0,1,5.85,13.82,20.29,20.29,0,0,1,1.1,7.66c.4,2.69.75,5.37,1.07,8.06Z"/><path class="cls-2" d="M114.11,133.81q-5-5.06-6.07-13.63a62.09,62.09,0,0,1,.06-15.76c.11-.84.23-1.7.37-2.57A109.76,109.76,0,0,1,113.23,83a85.09,85.09,0,0,1,7-15.61q3.87-6.46,7.61-8.16a11.4,11.4,0,0,1,5.37-.8,7.84,7.84,0,0,1,4.59,2.17,21.26,21.26,0,0,1,5.4,9.35,67.22,67.22,0,0,1,2.48,11.54c.45,3.76.69,6.63.72,8.59.15,3.26.13,7-.06,11.27-.1,2.09-.29,4.22-.55,6.39s-.62,4.34-1,6.52a49.86,49.86,0,0,1-4,12.15,22.31,22.31,0,0,1-7.53,8.84,16.88,16.88,0,0,1-9.85,2.91c-.33,0-.66,0-1-.08A14.37,14.37,0,0,1,114.11,133.81Z"/><circle class="cls-3" cx="125.84" cy="109.3" r="10.65"/></svg>