<?xml version="1.0" encoding="utf-8"?>
<!-- Generator: Adobe Illustrator 22.0.0, SVG Export Plug-In . SVG Version: 6.00 Build 0)  -->
<svg version="1.1" id="Layer_1" xmlns="http://www.w3.org/2000/svg" xmlns:xlink="http://www.w3.org/1999/xlink" x="0px" y="0px"
	 viewBox="0 0 1920.7 555.1" style="enable-background:new 0 0 1920.7 555.1;" xml:space="preserve">
<style type="text/css">
	.st0{fill:none;}
	.st1{fill:#D7E5E0;}
	.st2{fill:#E7F0ED;}
	.st3{fill:url(#SVGID_1_);}
</style>
<pattern  y="-212.9" width="48" height="48" patternUnits="userSpaceOnUse" id="_x36__dpi_60_x25__2" viewBox="7.2 -55.2 48 48" style="overflow:visible;">
	<g>
		<rect x="7.2" y="-55.2" class="st0" width="48" height="48"/>
		<g>
			<rect x="7.2" y="-55.2" class="st0" width="48" height="48"/>
			<g>
				<path class="st1" d="M31.2-62.4c4,0,7.2,3.2,7.2,7.2S35.2-48,31.2-48S24-51.2,24-55.2S27.2-62.4,31.2-62.4z"/>
				<path class="st1" d="M55.2-62.4c4,0,7.2,3.2,7.2,7.2S59.2-48,55.2-48S48-51.2,48-55.2S51.2-62.4,55.2-62.4z"/>
				<path class="st1" d="M31.2-38.4c4,0,7.2,3.2,7.2,7.2S35.2-24,31.2-24S24-27.2,24-31.2S27.2-38.4,31.2-38.4z"/>
				<path class="st1" d="M55.2-38.4c4,0,7.2,3.2,7.2,7.2S59.2-24,55.2-24S48-27.2,48-31.2S51.2-38.4,55.2-38.4z"/>
				<path class="st1" d="M43.2-50.4c4,0,7.2,3.2,7.2,7.2S47.2-36,43.2-36S36-39.2,36-43.2S39.2-50.4,43.2-50.4z"/>
				<path class="st1" d="M19.2-50.4c4,0,7.2,3.2,7.2,7.2S23.2-36,19.2-36S12-39.2,12-43.2C12-47.2,15.2-50.4,19.2-50.4z"/>
				<path class="st1" d="M43.2-26.4c4,0,7.2,3.2,7.2,7.2S47.2-12,43.2-12S36-15.2,36-19.2S39.2-26.4,43.2-26.4z"/>
				<path class="st1" d="M19.2-26.4c4,0,7.2,3.2,7.2,7.2S23.2-12,19.2-12S12-15.2,12-19.2C12-23.2,15.2-26.4,19.2-26.4z"/>
			</g>
			<g>
				<path class="st1" d="M7.2-62.4c4,0,7.2,3.2,7.2,7.2S11.2-48,7.2-48S0-51.2,0-55.2S3.2-62.4,7.2-62.4z"/>
				<path class="st1" d="M7.2-38.4c4,0,7.2,3.2,7.2,7.2S11.2-24,7.2-24S0-27.2,0-31.2S3.2-38.4,7.2-38.4z"/>
			</g>
			<g>
				<path class="st1" d="M31.2-14.4c4,0,7.2,3.2,7.2,7.2S35.2,0,31.2,0S24-3.2,24-7.2S27.2-14.4,31.2-14.4z"/>
				<path class="st1" d="M55.2-14.4c4,0,7.2,3.2,7.2,7.2S59.2,0,55.2,0S48-3.2,48-7.2S51.2-14.4,55.2-14.4z"/>
			</g>
			<g>
				<path class="st1" d="M7.2-14.4c4,0,7.2,3.2,7.2,7.2S11.2,0,7.2,0S0-3.2,0-7.2S3.2-14.4,7.2-14.4z"/>
			</g>
		</g>
	</g>
</pattern>
<path class="st2" d="M1919.6,560.4V297.2c-0.7-0.3-1.4-0.6-2.1-0.9c-2.1-5.6-4.7-11.2-6.9-16.5c-3.2-7.7-6.2-16.5-10.9-23.8
	c-6.7-10.6-15.2-21.2-23.3-30.5c-1.9-2.2-3.8-4.2-5.9-6.1c-21.9-19.8-42.4-31-70-40.9c-24.9-9-52.7-9.7-79-11
	c-37.7-1.9-75.5-2.5-113.2-2.4c-150.6,0.6-300.9,13.9-451.5,14.7c-78.6,0.4-157.1-3.1-235.1-12.6c-121-17.6-239.9-46.6-359.2-73
	c-62.5-13.8-125.2-26.8-188.4-37c-41.8-6.7-84.8-14.9-127.3-12.9c-41,1.9-81.3,9.9-119.5,24.6C84.4,85.2,42.7,104.5,0.7,122.8
	c-0.4,0.2-0.9,0.4-1.3,0.6v437H1919.6z"/>
<pattern  id="SVGID_1_" xlink:href="#_x36__dpi_60_x25__2" patternTransform="matrix(1 0 0 -1 20.8 -13516.6006)">
</pattern>
<path class="st3" d="M1919.6,560.4V448.1c-0.7-0.1-1.4-0.3-2.1-0.4c-2.1-2.4-4.7-4.8-6.9-7c-3.2-3.3-6.2-7.1-10.9-10.2
	c-6.7-4.5-15.2-9-23.3-13c-1.9-0.9-3.8-1.8-5.9-2.6c-21.9-8.4-42.4-13.2-70-17.5c-24.9-3.8-52.7-4.1-79-4.7
	c-37.7-0.8-75.5-1.1-113.2-1c-150.6,0.3-300.9,5.9-451.5,6.3c-78.6,0.2-157.1-1.3-235.1-5.4c-121-7.5-239.9-19.9-359.2-31.1
	c-62.5-5.9-125.2-11.5-188.4-15.8c-41.8-2.9-84.8-6.4-127.3-5.5c-41,0.8-81.3,4.2-119.5,10.5c-42.8,7-84.5,15.2-126.5,23.1
	c-0.4,0.1-0.9,0.2-1.3,0.2v186.4H1919.6z"/>
</svg>
