<?xml version="1.0" encoding="utf-8"?>
<!-- Generator: Adobe Illustrator 22.0.0, SVG Export Plug-In . SVG Version: 6.00 Build 0)  -->
<svg version="1.1" id="Layer_1" xmlns="http://www.w3.org/2000/svg" xmlns:xlink="http://www.w3.org/1999/xlink" x="0px" y="0px"
	 viewBox="0 0 1080 1080" style="enable-background:new 0 0 1080 1080;" xml:space="preserve">
<style type="text/css">
	.st0{fill:none;}
	.st1{fill:#D7E5E0;}
	.st2{fill:#E7F0ED;}
	.st3{fill:url(#SVGID_1_);}
</style>
<pattern  y="1080" width="48" height="48" patternUnits="userSpaceOnUse" id="_x36__dpi_60_x25_" viewBox="7.2 -55.2 48 48" style="overflow:visible;">
	<g>
		<rect x="7.2" y="-55.2" class="st0" width="48" height="48"/>
		<g>
			<rect x="7.2" y="-55.2" class="st0" width="48" height="48"/>
			<g>
				<path class="st1" d="M31.2-62.4c4,0,7.2,3.2,7.2,7.2S35.2-48,31.2-48S24-51.2,24-55.2S27.2-62.4,31.2-62.4z"/>
				<path class="st1" d="M55.2-62.4c4,0,7.2,3.2,7.2,7.2S59.2-48,55.2-48S48-51.2,48-55.2S51.2-62.4,55.2-62.4z"/>
				<path class="st1" d="M31.2-38.4c4,0,7.2,3.2,7.2,7.2S35.2-24,31.2-24S24-27.2,24-31.2S27.2-38.4,31.2-38.4z"/>
				<path class="st1" d="M55.2-38.4c4,0,7.2,3.2,7.2,7.2S59.2-24,55.2-24S48-27.2,48-31.2S51.2-38.4,55.2-38.4z"/>
				<path class="st1" d="M43.2-50.4c4,0,7.2,3.2,7.2,7.2S47.2-36,43.2-36S36-39.2,36-43.2S39.2-50.4,43.2-50.4z"/>
				<path class="st1" d="M19.2-50.4c4,0,7.2,3.2,7.2,7.2S23.2-36,19.2-36S12-39.2,12-43.2C12-47.2,15.2-50.4,19.2-50.4z"/>
				<path class="st1" d="M43.2-26.4c4,0,7.2,3.2,7.2,7.2S47.2-12,43.2-12S36-15.2,36-19.2S39.2-26.4,43.2-26.4z"/>
				<path class="st1" d="M19.2-26.4c4,0,7.2,3.2,7.2,7.2S23.2-12,19.2-12S12-15.2,12-19.2C12-23.2,15.2-26.4,19.2-26.4z"/>
			</g>
			<g>
				<path class="st1" d="M7.2-62.4c4,0,7.2,3.2,7.2,7.2S11.2-48,7.2-48S0-51.2,0-55.2S3.2-62.4,7.2-62.4z"/>
				<path class="st1" d="M7.2-38.4c4,0,7.2,3.2,7.2,7.2S11.2-24,7.2-24S0-27.2,0-31.2S3.2-38.4,7.2-38.4z"/>
			</g>
			<g>
				<path class="st1" d="M31.2-14.4c4,0,7.2,3.2,7.2,7.2S35.2,0,31.2,0S24-3.2,24-7.2S27.2-14.4,31.2-14.4z"/>
				<path class="st1" d="M55.2-14.4c4,0,7.2,3.2,7.2,7.2S59.2,0,55.2,0S48-3.2,48-7.2S51.2-14.4,55.2-14.4z"/>
			</g>
			<g>
				<path class="st1" d="M7.2-14.4c4,0,7.2,3.2,7.2,7.2S11.2,0,7.2,0S0-3.2,0-7.2S3.2-14.4,7.2-14.4z"/>
			</g>
		</g>
	</g>
</pattern>
<path class="st2" d="M720,509c-1.7-19.3-4.2-38.7-8.1-57.7c-1.8-8.8-4.2-17.6-7.2-26.1c-8.8-25.4-19.6-51.1-33.9-73.9
	c-14.1-22.5-30.9-43.9-48.9-63.4c-11.8-12.8-24.6-24.5-38.2-35.3c-22.3-17.6-44.6-34.8-68.9-49.6c-33.4-20.3-68.8-37-104.3-53.5
	c-77.1-35.7-154.2-71.4-231.3-107.1c-18.9-8.7-37.8-17.5-56.7-26.2C108.7,7.4,93.9,2.7,77.9,2C62-1.6,46.1-0.9,30.2,4.1
	C19.9,6.6,10.5,10.5,2,15.9v1057.5c14.2,3.2,29.1,3.9,43.6,4.4c19.1,0.7,38.3,0.5,57.5-0.4c29.1-1.5,57.7-5.4,86.5-9.3
	c37.6-5.2,74.8-13.5,110.9-25.5c27.4-9.1,54.1-20.4,80.5-32.2c16.4-7.3,32.5-15.4,48-24.4c37.3-21.4,72.3-47.7,104.8-75.8
	c12.7-11,24.9-22.7,36.5-34.9c18.1-19.2,34-40,50-60.9c20.3-26.5,37.9-55,51.9-85.3c11.9-25.8,23.3-52.3,31.4-79.7
	c8.2-27.7,11.9-56,15.4-84.7C721.2,546.3,721.7,527.6,720,509z"/>
<pattern  id="SVGID_1_" xlink:href="#_x36__dpi_60_x25_" patternTransform="matrix(1 0 0 -1 -49.2 -16837.5996)">
</pattern>
<path class="st3" d="M215.7,587.9c-0.5-15.2-1.2-30.5-2.4-45.5c-0.5-7-1.3-13.9-2.1-20.6c-2.6-20-5.8-40.2-10.1-58.3
	c-4.2-17.8-9.2-34.6-14.5-50c-3.5-10.1-7.3-19.3-11.4-27.8c-6.6-13.9-13.3-27.4-20.5-39.1c-9.9-16-20.5-29.2-31-42.1
	c-22.9-28.2-45.9-56.3-68.8-84.4c-5.6-6.9-11.2-13.8-16.9-20.7c-4.1-6.9-8.5-10.6-13.2-11.2c-4.7-2.8-9.5-2.2-14.2,1.7
	c-3.1,1.9-5.9,5-8.4,9.3v833.6c4.2,2.5,8.7,3.1,13,3.5c5.7,0.5,11.4,0.4,17.1-0.3c8.6-1.2,17.2-4.2,25.8-7.4
	c11.2-4.1,22.3-10.6,33-20.1c8.2-7.2,16.1-16.1,23.9-25.4c4.9-5.8,9.7-12.2,14.3-19.2c11.1-16.9,21.5-37.6,31.2-59.7
	c3.8-8.7,7.4-17.9,10.9-27.5c5.4-15.1,10.1-31.5,14.9-48c6-20.9,11.3-43.3,15.4-67.2c3.6-20.3,6.9-41.3,9.4-62.8
	c2.4-21.8,3.5-44.2,4.6-66.8C216,617.3,216.2,602.6,215.7,587.9z"/>
</svg>
